<?xml version="1.0" standalone="no"?>
<!DOCTYPE svg PUBLIC "-//W3C//DTD SVG 20010904//EN"
 "http://www.w3.org/TR/2001/REC-SVG-20010904/DTD/svg10.dtd">
<svg version="1.0" xmlns="http://www.w3.org/2000/svg"
 width="3132.000000pt" height="1080.000000pt" viewBox="0 0 3132.000000 1080.000000"
 preserveAspectRatio="xMidYMid meet">
<metadata>
Created by potrace 1.15, written by Peter Selinger 2001-2017
</metadata>
<g transform="translate(0.000000,1080.000000) scale(0.100000,-0.100000)"
fill="#000000" stroke="none">
<path d="M10800 7705 c-701 -86 -1342 -559 -1672 -1236 -93 -191 -145 -336
-188 -529 -51 -229 -50 -204 -50 -1614 l0 -1316 645 0 645 0 0 1238 c0 739 5
1267 10 1312 43 330 233 625 483 752 247 124 524 125 769 3 190 -95 361 -305
437 -535 57 -174 54 -106 58 -1492 l4 -1278 649 0 650 0 0 1208 c0 1241 -4
1391 -41 1610 -148 883 -804 1620 -1627 1828 -243 62 -523 79 -772 49z"/>
<path d="M1860 7613 c-331 -35 -626 -178 -865 -418 -222 -221 -365 -495 -411
-785 -23 -145 -15 -496 14 -620 57 -242 160 -443 323 -634 166 -196 394 -349
641 -430 199 -66 199 -66 1137 -66 785 0 848 -1 881 -18 42 -20 58 -65 59
-160 1 -72 -16 -113 -54 -130 -20 -9 -346 -12 -1355 -12 l-1330 0 0 -660 0
-660 1418 3 c1325 3 1422 4 1492 21 579 139 1019 598 1114 1162 32 194 29 445
-10 628 -117 557 -567 1003 -1129 1119 -95 19 -139 20 -960 24 -576 2 -869 7
-887 14 -38 15 -53 61 -53 161 0 82 2 89 28 115 l27 28 1340 3 1340 2 0 660 0
660 -1362 -2 c-750 0 -1379 -3 -1398 -5z"/>
<path d="M4990 7607 c0 -7 295 -695 655 -1528 l656 -1514 -50 -46 c-65 -58
-174 -120 -276 -156 l-80 -28 -407 -3 -408 -3 0 -660 0 -660 468 4 c463 4 468
4 592 31 451 98 894 358 1180 691 99 117 150 191 246 362 43 76 146 257 229
403 83 146 190 337 237 425 47 88 173 324 280 525 544 1017 1138 2142 1138
2155 0 13 -88 15 -743 15 l-743 0 -156 -302 c-303 -585 -689 -1307 -698 -1308
-3 0 -161 361 -351 803 l-346 802 -712 3 c-581 2 -711 0 -711 -11z"/>
<path d="M15295 7595 c-368 -48 -753 -213 -1045 -448 -458 -370 -757 -891
-857 -1492 -25 -153 -25 -522 0 -685 108 -686 505 -1296 1075 -1649 172 -107
373 -191 584 -245 239 -62 193 -59 1356 -63 l1072 -4 0 660 0 660 -1032 4
c-1007 3 -1035 4 -1103 24 -177 51 -317 132 -409 234 l-49 54 884 5 884 5 0
655 0 655 -883 5 -884 5 42 48 c73 82 228 179 355 222 131 44 159 45 1203 45
l992 0 0 660 0 660 -1042 -1 c-788 -1 -1067 -4 -1143 -14z"/>
<path d="M17540 5310 l0 -2300 660 0 660 0 0 1640 0 1640 798 0 798 0 46 -29
c125 -79 141 -313 28 -415 -21 -19 -56 -39 -77 -45 -25 -7 -292 -11 -795 -11
-474 0 -758 -4 -758 -10 0 -12 541 -1542 581 -1640 87 -220 213 -404 409 -600
255 -255 518 -411 818 -485 166 -41 234 -45 698 -45 l444 0 0 660 0 659 -443
3 -443 3 -69 35 c-68 34 -141 107 -132 133 2 6 38 18 80 28 203 48 409 169
582 343 252 253 419 586 471 938 22 148 14 409 -16 550 -66 312 -213 582 -439
809 -218 217 -421 332 -721 407 l-105 26 -1537 3 -1538 3 0 -2300z"/>
<path d="M23975 7603 c-336 -39 -626 -136 -885 -293 -270 -165 -541 -429 -722
-704 -397 -605 -496 -1355 -269 -2037 259 -774 877 -1344 1641 -1512 202 -45
270 -47 1477 -47 l1143 0 0 1480 0 1480 -1165 0 -1165 0 0 -660 0 -660 510 0
510 0 0 -160 0 -160 -453 0 c-259 0 -489 5 -537 11 -410 51 -715 399 -762 870
-45 445 205 890 576 1025 153 55 120 54 1351 54 l1135 0 0 660 0 660 -1177 -1
c-648 -1 -1191 -4 -1208 -6z"/>
<path d="M28415 7595 c-711 -92 -1342 -560 -1680 -1247 -155 -316 -231 -611
-242 -948 -17 -505 116 -976 392 -1390 319 -479 761 -800 1287 -934 239 -62
192 -59 1356 -63 l1072 -4 0 660 0 660 -1032 3 -1033 3 -88 28 c-177 55 -300
127 -392 229 l-48 53 884 5 884 5 0 655 0 655 -883 5 -883 5 35 41 c65 76 195
163 317 212 30 13 98 32 150 42 89 19 142 20 1092 20 l997 0 0 660 0 660
-1042 -1 c-788 -1 -1067 -4 -1143 -14z"/>
</g>
</svg>
